<svg width="36" height="34" viewBox="0 0 36 34" fill="none" xmlns="http://www.w3.org/2000/svg">
<path d="M30.2353 13.4706V5.52941C30.2353 3.58017 28.6551 2 26.7059 2H5.52941C3.58017 2 2 3.58017 2 5.52941V19.3402C2 21.2894 3.58017 22.8696 5.52941 22.8696H8.29156V30.2353L15.6573 22.8696H16.1176M25.2289 27.3964L29.8325 32V27.3964H30.2353C32.1845 27.3964 33.7647 25.8162 33.7647 23.867V17.8824C33.7647 15.9331 32.1845 14.3529 30.2353 14.3529H19.6471C17.6978 14.3529 16.1176 15.9331 16.1176 17.8824V23.867C16.1176 25.8163 17.6978 27.3964 19.6471 27.3964H25.2289Z" stroke="black" stroke-width="3" stroke-linecap="round" stroke-linejoin="round"/>
</svg>
