<svg width="9" height="9" viewBox="0 0 9 9" fill="none" xmlns="http://www.w3.org/2000/svg">
<path fill-rule="evenodd" clip-rule="evenodd" d="M0.146447 0.146447C0.341709 -0.0488155 0.658291 -0.0488155 0.853553 0.146447L8.85355 8.14645C9.04882 8.34171 9.04882 8.65829 8.85355 8.85355C8.65829 9.04882 8.34171 9.04882 8.14645 8.85355L0.146447 0.853553C-0.0488155 0.658291 -0.0488155 0.341709 0.146447 0.146447Z" fill="#555555"/>
<path fill-rule="evenodd" clip-rule="evenodd" d="M8.85355 0.146447C9.04882 0.341709 9.04882 0.658291 8.85355 0.853553L0.853552 8.85355C0.65829 9.04882 0.341708 9.04882 0.146446 8.85355C-0.0488161 8.65829 -0.0488161 8.34171 0.146446 8.14645L8.14645 0.146447C8.34171 -0.0488156 8.65829 -0.0488156 8.85355 0.146447Z" fill="#555555"/>
</svg>
