<svg width="24" height="24" viewBox="0 0 24 24" fill="none" xmlns="http://www.w3.org/2000/svg">
<path d="M2.3999 5.40005H21.5999M9.5999 17.4V10.2M14.3999 17.4V10.2M16.7999 22.2H7.1999C5.87442 22.2 4.7999 21.1255 4.7999 19.8V6.60005C4.7999 5.93731 5.33716 5.40005 5.9999 5.40005H17.9999C18.6626 5.40005 19.1999 5.93731 19.1999 6.60005V19.8001C19.1999 21.1255 18.1254 22.2 16.7999 22.2ZM9.5999 5.40005H14.3999C15.0626 5.40005 15.5999 4.86279 15.5999 4.20005V3.00005C15.5999 2.33731 15.0626 1.80005 14.3999 1.80005H9.5999C8.93716 1.80005 8.3999 2.33731 8.3999 3.00005V4.20005C8.3999 4.86279 8.93716 5.40005 9.5999 5.40005Z" stroke="#8F5BBD" stroke-width="2" stroke-linecap="round" stroke-linejoin="round"/>
</svg>
